<svg xmlns="http://www.w3.org/2000/svg" width="192.82" height="35" viewBox="0 0 192.82 35"><rect class="svg__rect" x="0" y="0" width="98.81" height="35" fill="#D34E64"/><rect class="svg__rect" x="96.81" y="0" width="96.00999999999999" height="35" fill="#A02524"/><path class="svg__text" d="M17.33 22L14.22 22L14.22 13.47L17.14 13.47Q18.59 13.47 19.34 14.05Q20.10 14.63 20.10 15.78L20.10 15.78Q20.10 16.36 19.78 16.83Q19.47 17.30 18.86 17.56L18.86 17.56Q19.55 17.75 19.93 18.26Q20.31 18.78 20.31 19.51L20.31 19.51Q20.31 20.71 19.53 21.36Q18.76 22 17.33 22L17.33 22ZM15.70 18.15L15.70 20.82L17.35 20.82Q18.04 20.82 18.44 20.47Q18.83 20.13 18.83 19.51L18.83 19.51Q18.83 18.18 17.47 18.15L17.47 18.15L15.70 18.15ZM15.70 14.66L15.70 17.06L17.15 17.06Q17.84 17.06 18.23 16.75Q18.62 16.43 18.62 15.86L18.62 15.86Q18.62 15.23 18.26 14.95Q17.90 14.66 17.14 14.66L17.14 14.66L15.70 14.66ZM24.64 19.16L24.64 19.16L24.64 13.47L26.12 13.47L26.12 19.18Q26.12 20.03 26.55 20.48Q26.98 20.93 27.83 20.93L27.83 20.93Q29.54 20.93 29.54 19.13L29.54 19.13L29.54 13.47L31.02 13.47L31.02 19.17Q31.02 20.53 30.15 21.32Q29.28 22.12 27.83 22.12L27.83 22.12Q26.36 22.12 25.50 21.33Q24.64 20.55 24.64 19.16ZM37.15 22L35.67 22L35.67 13.47L37.15 13.47L37.15 22ZM47.32 22L41.96 22L41.96 13.47L43.44 13.47L43.44 20.82L47.32 20.82L47.32 22ZM53.12 14.66L50.49 14.66L50.49 13.47L57.25 13.47L57.25 14.66L54.59 14.66L54.59 22L53.12 22L53.12 14.66ZM66.72 18.00L66.72 18.00L66.72 17.52Q66.72 16.28 67.16 15.32Q67.60 14.37 68.41 13.86Q69.21 13.35 70.26 13.35Q71.30 13.35 72.10 13.85Q72.91 14.35 73.35 15.29Q73.79 16.23 73.80 17.48L73.80 17.48L73.80 17.96Q73.80 19.21 73.36 20.16Q72.93 21.10 72.12 21.61Q71.32 22.12 70.27 22.12L70.27 22.12Q69.23 22.12 68.42 21.61Q67.61 21.10 67.17 20.17Q66.72 19.23 66.72 18.00ZM68.20 17.46L68.20 17.96Q68.20 19.36 68.75 20.13Q69.30 20.90 70.27 20.90L70.27 20.90Q71.25 20.90 71.78 20.15Q72.31 19.40 72.31 17.96L72.31 17.96L72.31 17.51Q72.31 16.09 71.78 15.34Q71.24 14.58 70.26 14.58L70.26 14.58Q69.30 14.58 68.75 15.33Q68.21 16.09 68.20 17.46L68.20 17.46ZM79.74 22L78.26 22L78.26 13.47L79.74 13.47L83.56 19.54L83.56 13.47L85.03 13.47L85.03 22L83.55 22L79.74 15.95L79.74 22Z" fill="#FFFFFF"/><path class="svg__text" d="M113.38 22L111.00 22L111.00 13.60L114.84 13.60Q115.98 13.60 116.82 13.98Q117.66 14.35 118.12 15.06Q118.57 15.76 118.57 16.71L118.57 16.71Q118.57 17.66 118.12 18.35Q117.66 19.05 116.82 19.42Q115.98 19.80 114.84 19.80L114.84 19.80L113.38 19.80L113.38 22ZM113.38 15.47L113.38 17.93L114.70 17.93Q115.43 17.93 115.80 17.61Q116.17 17.29 116.17 16.71L116.17 16.71Q116.17 16.12 115.80 15.80Q115.43 15.47 114.70 15.47L114.70 15.47L113.38 15.47ZM125.45 18.95L122.25 13.60L124.76 13.60L126.75 16.94L128.74 13.60L131.04 13.60L127.83 18.99L127.83 22L125.45 22L125.45 18.95ZM136.92 15.48L134.34 15.48L134.34 13.60L141.86 13.60L141.86 15.48L139.29 15.48L139.29 22L136.92 22L136.92 15.48ZM148.61 22L146.23 22L146.23 13.60L148.61 13.60L148.61 16.76L151.85 16.76L151.85 13.60L154.22 13.60L154.22 22L151.85 22L151.85 18.72L148.61 18.72L148.61 22ZM158.96 17.80L158.96 17.80Q158.96 16.55 159.56 15.55Q160.16 14.56 161.23 14.00Q162.29 13.43 163.62 13.43L163.62 13.43Q164.95 13.43 166.01 14.00Q167.08 14.56 167.68 15.55Q168.29 16.55 168.29 17.80L168.29 17.80Q168.29 19.05 167.68 20.04Q167.08 21.04 166.02 21.60Q164.96 22.17 163.62 22.17L163.62 22.17Q162.29 22.17 161.23 21.60Q160.16 21.04 159.56 20.04Q158.96 19.05 158.96 17.80ZM161.35 17.80L161.35 17.80Q161.35 18.51 161.66 19.05Q161.96 19.60 162.47 19.90Q162.99 20.20 163.62 20.20L163.62 20.20Q164.26 20.20 164.78 19.90Q165.29 19.60 165.59 19.05Q165.89 18.51 165.89 17.80L165.89 17.80Q165.89 17.09 165.59 16.54Q165.29 16 164.78 15.70Q164.26 15.40 163.62 15.40L163.62 15.40Q162.98 15.40 162.47 15.70Q161.96 16 161.66 16.54Q161.35 17.09 161.35 17.80ZM175.35 22L173.02 22L173.02 13.60L174.98 13.60L178.69 18.07L178.69 13.60L181.01 13.60L181.01 22L179.06 22L175.35 17.52L175.35 22Z" fill="#FFFFFF" x="109.81"/></svg>